<svg id="Group_4671" data-name="Group 4671" xmlns="http://www.w3.org/2000/svg" width="50" height="49.493" viewBox="0 0 50 49.493">
  <g id="facebook">
    <ellipse id="Ellipse_335" data-name="Ellipse 335" cx="25" cy="24.747" rx="25" ry="24.747" fill="red"/>
  </g>
  <path id="Subtraction_7" data-name="Subtraction 7" d="M13.939,19.668c-.087,0-8.729-.007-10.909-.6A3.5,3.5,0,0,1,.574,16.59,37.411,37.411,0,0,1,0,9.834,37.548,37.548,0,0,1,.574,3.077,3.589,3.589,0,0,1,3.031.578C5.188.007,13.852,0,13.939,0S22.69.007,24.848.6A3.5,3.5,0,0,1,27.3,3.077a35.716,35.716,0,0,1,.574,6.779,37.548,37.548,0,0,1-.574,6.757,3.508,3.508,0,0,1-2.456,2.476C22.69,19.661,14.027,19.668,13.939,19.668ZM9.87,4.568V15.1l9.075-5.268Z" transform="translate(11.765 14.706)" fill="#fff"/>
</svg>
