<svg xmlns="http://www.w3.org/2000/svg" width="49.334" height="49.334" viewBox="0 0 49.334 49.334">
  <path id="twitter" d="M24.667,0A24.667,24.667,0,1,0,49.334,24.667,24.67,24.67,0,0,0,24.667,0ZM35.93,19.233q.016.364.016.732c0,7.481-5.695,16.109-16.109,16.109h0a16.026,16.026,0,0,1-8.678-2.543,11.515,11.515,0,0,0,1.35.078,11.36,11.36,0,0,0,7.032-2.424,5.668,5.668,0,0,1-5.289-3.933,5.643,5.643,0,0,0,2.557-.1,5.663,5.663,0,0,1-4.542-5.55c0-.026,0-.049,0-.072a5.623,5.623,0,0,0,2.564.708,5.667,5.667,0,0,1-1.753-7.559A16.074,16.074,0,0,0,24.749,20.6,5.665,5.665,0,0,1,34.4,15.435a11.356,11.356,0,0,0,3.6-1.374,5.684,5.684,0,0,1-2.49,3.132,11.292,11.292,0,0,0,3.251-.892A11.506,11.506,0,0,1,35.93,19.233Zm0,0" fill="#1cb7eb"/>
</svg>
