<svg id="Group_4670" data-name="Group 4670" xmlns="http://www.w3.org/2000/svg" width="50" height="49.493" viewBox="0 0 50 49.493">
  <ellipse id="Ellipse_335" data-name="Ellipse 335" cx="25" cy="24.747" rx="25" ry="24.747" fill="#0177b5"/>
  <path id="Path_1992" data-name="Path 1992" d="M4.785,12.793h5.253V29.661H4.785ZM7.407,4.4a3.038,3.038,0,1,1-2.15.889A3.04,3.04,0,0,1,7.407,4.4m5.91,8.4h5.029V15.1h.07a5.516,5.516,0,0,1,4.971-2.724c5.309,0,6.289,3.494,6.289,8.036v9.253h-5.24V21.457c0-1.955-.035-4.474-2.724-4.474-2.729,0-3.148,2.132-3.148,4.33v8.345H13.325V12.789Z" transform="translate(9.28 6.342)" fill="#fff"/>
</svg>
